<?xml version="1.0" encoding="UTF-8" standalone="no"?>
<!-- Created with Inkscape (http://www.inkscape.org/) -->

<svg
   xmlns:dc="http://purl.org/dc/elements/1.1/"
   xmlns:cc="http://creativecommons.org/ns#"
   xmlns:rdf="http://www.w3.org/1999/02/22-rdf-syntax-ns#"
   xmlns:svg="http://www.w3.org/2000/svg"
   xmlns="http://www.w3.org/2000/svg"
   xmlns:xlink="http://www.w3.org/1999/xlink"
   xmlns:sodipodi="http://sodipodi.sourceforge.net/DTD/sodipodi-0.dtd"
   xmlns:inkscape="http://www.inkscape.org/namespaces/inkscape"
   version="1.1"
   id="svg815"
   width="512"
   height="307"
   viewBox="0 0 512 307"
   sodipodi:docname="groen_scherm.svg"
   inkscape:version="0.92.4 (5da689c313, 2019-01-14)">
  <metadata
     id="metadata821">
    <rdf:RDF>
      <cc:Work
         rdf:about="">
        <dc:format>image/svg+xml</dc:format>
        <dc:type
           rdf:resource="http://purl.org/dc/dcmitype/StillImage" />
        <dc:title></dc:title>
      </cc:Work>
    </rdf:RDF>
  </metadata>
  <defs
     id="defs819">
    <linearGradient
       inkscape:collect="always"
       id="vingerafdruk-5">
      <stop
         style="stop-color:#f6a0bf;stop-opacity:1"
         offset="0"
         id="stop4592" />
      <stop
         style="stop-color:#ef6e9a;stop-opacity:1"
         offset="1"
         id="stop4594" />
    </linearGradient>
    <linearGradient
       id="achtergrond-0"
       inkscape:collect="always">
      <stop
         id="stop4578"
         offset="0"
         style="stop-color:#e571a0;stop-opacity:1" />
      <stop
         id="stop4580"
         offset="1"
         style="stop-color:#893669;stop-opacity:1" />
    </linearGradient>
    <radialGradient
       inkscape:collect="always"
       xlink:href="#achtergrond-0"
       id="radialGradient4576"
       cx="241.20273"
       cy="141.05142"
       fx="241.20273"
       fy="141.05142"
       r="540"
       gradientTransform="matrix(0.1825972,-0.00632599,0.00697499,0.2013305,192.25696,112.10096)"
       gradientUnits="userSpaceOnUse"
       spreadMethod="pad" />
    <radialGradient
       inkscape:collect="always"
       xlink:href="#vingerafdruk-5"
       id="radialGradient4600"
       gradientUnits="userSpaceOnUse"
       gradientTransform="matrix(1,0,0,1.311623,0,-43.307212)"
       cx="237.28373"
       cy="138.97307"
       fx="237.28373"
       fy="138.97307"
       r="83.40462" />
  </defs>
  <sodipodi:namedview
     pagecolor="#ffffff"
     bordercolor="#666666"
     borderopacity="1"
     objecttolerance="10"
     gridtolerance="10"
     guidetolerance="10"
     inkscape:pageopacity="0"
     inkscape:pageshadow="2"
     inkscape:window-width="1920"
     inkscape:window-height="1001"
     id="namedview817"
     showgrid="false"
     showguides="false"
     inkscape:zoom="0.6322928"
     inkscape:cx="1469.0995"
     inkscape:cy="127.44198"
     inkscape:window-x="-9"
     inkscape:window-y="41"
     inkscape:window-maximized="1"
     inkscape:current-layer="svg815" />
  <rect
     style="opacity:1;fill:url(#radialGradient4576);fill-opacity:1.0;stroke:#b76f4b;stroke-width:0;stroke-miterlimit:4;stroke-dasharray:none;stroke-opacity:1"
     id="rect4529"
     width="1080"
     height="780"
     x="-302.71628"
     y="-251.02693"
     inkscape:export-filename="C:\Users\dante\de mol\rood_scherm.png"
     inkscape:export-xdpi="300"
     inkscape:export-ydpi="300" />
  <path
     style="fill:url(#radialGradient4600);stroke-width:0.72032958;fill-opacity:1"
     d="m 243.20941,247.96887 c -10.52871,-2.43418 -16.30406,-4.94746 -24.04812,-10.46511 -2.79092,-1.98853 -6.16757,-4.77798 -7.50368,-6.19878 -1.33611,-1.42079 -2.64046,-2.58326 -2.89856,-2.58326 -0.2581,0 -0.66391,1.91943 -0.90182,4.26539 -0.58904,5.80845 -0.99669,6.73006 -2.69115,6.08401 -1.16676,-0.44485 -1.42785,-1.38785 -1.65766,-5.98718 -0.30771,-6.15842 -1.33481,-9.32263 -18.26992,-56.28399 -1.95809,-5.42985 -4.99852,-13.98597 -6.75651,-19.01361 -1.75798,-5.02764 -4.4748,-12.76106 -6.03737,-17.18538 -4.70919,-13.33376 -5.50979,-17.21863 -5.50979,-26.736 0,-8.99858 0.53584,-10.61502 3.33619,-10.06402 1.12101,0.22057 1.33131,1.40324 1.73372,9.75001 0.48547,10.06966 0.90624,12.32638 3.81634,20.46838 1.0063,2.81548 3.29566,9.23257 5.08746,14.26021 1.7918,5.02763 4.2007,11.77381 5.35311,14.99149 1.15241,3.21769 2.34888,6.70945 2.65884,7.75946 0.30995,1.05002 0.93012,2.61509 1.37816,3.47794 0.76617,1.4755 0.9375,1.5033 2.88078,0.46757 1.13639,-0.60567 2.75784,-1.10122 3.60322,-1.10122 1.8325,0 2.0968,1.09917 -3.51678,-14.62586 -2.36912,-6.63648 -4.31381,-12.63064 -4.32154,-13.32036 -0.0191,-1.71075 2.4724,-3.01352 4.07391,-2.13013 0.68741,0.37918 1.86973,2.61205 2.62739,4.96195 0.75765,2.34991 1.63254,4.76618 1.94418,5.3695 0.31165,0.60331 2.00554,5.375 3.76421,10.60374 1.75867,5.22874 3.49818,10.16496 3.86556,10.96939 0.36739,0.80442 1.14363,2.94345 1.72497,4.7534 0.58135,1.80995 2.22465,6.58163 3.65177,10.60374 1.42712,4.02211 2.86646,8.23754 3.19854,9.36762 1.11746,3.80281 5.63264,11.34211 9.2059,15.37174 20.92228,23.59443 58.37693,18.45282 72.76738,-9.98917 3.33129,-6.5841 6.2026,-10.97186 9.74124,-14.88591 3.08259,-3.40962 11.84011,-9.73673 13.47685,-9.73673 1.2095,0 2.2683,2.22932 1.36154,2.8667 -8.068,5.67123 -12.87689,11.0076 -17.68546,19.62533 -8.28612,14.85008 -14.32815,21.4069 -24.60843,26.70513 -9.89177,5.098 -21.30483,6.75764 -31.63518,4.60024 -13.54542,-2.82883 -23.10153,-9.03501 -31.03863,-20.15794 -3.85293,-5.39944 -4.74088,-7.30485 -9.44568,-20.26903 -4.6862,-12.91294 -5.7348,-14.83301 -8.10063,-14.83301 -2.03845,0 -3.93675,1.76829 -3.93675,3.66714 0,2.33635 8.46055,25.69254 11.11938,30.69616 8.0518,15.15256 23.43187,26.6627 40.32162,30.1759 3.71475,0.77271 5.02862,1.36221 5.2123,2.33867 0.15086,0.80193 -0.0544,1.11444 -0.53214,0.81013 -0.42776,-0.27247 -0.77774,-0.14691 -0.77774,0.27904 0,0.76446 -3.27202,0.91458 -6.03102,0.27671 z m -54.02718,-22.00183 c -0.22212,-0.69709 -0.88793,-2.38981 -1.47957,-3.7616 -1.44856,-3.3587 -12.02324,-32.36403 -18.42008,-50.52454 -1.77094,-5.02764 -3.85917,-10.95111 -4.64053,-13.16327 -9.97542,-28.24224 -10.80225,-31.75386 -10.7616,-45.70578 0.0346,-11.85757 0.68967,-15.533103 4.6653,-26.173453 1.95851,-5.241753 2.04299,-5.832073 1.05667,-7.383563 -0.58962,-0.92747 -2.07088,-2.112736 -3.2917,-2.633923 -1.6392,-0.699804 -2.16384,-1.350671 -2.00617,-2.488887 0.31592,-2.280766 4.18703,-2.475042 7.07562,-0.355097 l 2.24165,1.645145 1.12435,-1.660697 c 7.23413,-10.684913 16.65378,-19.146522 27.24631,-24.475162 11.63195,-5.851533 17.65583,-7.317064 30.28577,-7.368141 8.56118,-0.03462 11.36014,0.244279 16.67398,1.661471 15.82069,5.048613 28.83344,15.263237 36.64933,23.418174 7.0146,8.023407 10.79351,14.632197 15.11545,26.43488 1.84104,5.02763 4.10619,11.115643 5.03367,13.528913 0.92748,2.41326 3.16551,8.66581 4.9734,13.89456 1.80789,5.22874 4.85273,13.96955 6.76631,19.42402 1.91358,5.45446 3.47924,10.26036 3.47924,10.67977 0,0.41941 0.78297,1.63332 1.73994,2.69759 1.25158,1.39189 2.44649,1.93501 4.25719,1.93501 2.05447,0 2.51724,0.27221 2.51724,1.48069 0,1.85809 -3.07041,3.16212 -6.07673,2.58083 -4.67627,-0.90418 -6.56549,-5.03609 -19.41124,-42.45438 -5.35681,-15.60378 -6.69947,-19.444163 -8.6929,-24.863943 -4.06434,-11.050243 -7.91168,-18.192876 -12.24497,-22.732921 -0.41689,-0.436775 -1.88953,-2.082184 -3.27254,-3.656463 -6.15621,-7.007617 -18.49075,-14.16645 -29.7691,-17.277673 -8.71746,-2.404783 -24.0139,-2.391411 -32.63842,0.02854 -6.8269,1.915549 -16.01625,6.148148 -20.96111,9.654648 -19.47152,13.807641 -30.76913,39.241859 -27.92614,62.869922 0.70727,5.87812 3.96006,17.75266 6.31016,23.03572 0.35784,0.80442 2.08428,5.60315 3.83655,10.66385 1.75225,5.0607 3.50532,9.99692 3.8957,10.96939 0.64163,1.59832 6.88419,19.21509 10.73285,30.28853 4.48616,12.90768 10.6309,31.91836 10.6309,32.89006 -0.85952,1.85088 -3.91529,-2.17328 -4.71478,-3.10222 z m 57.42846,-4.94885 c -8.22913,-2.28482 -14.55442,-6.55231 -19.67126,-13.27163 -3.81902,-5.01508 -6.99174,-12.87012 -18.11174,-44.84117 -9.94645,-28.597 -10.24455,-29.33007 -11.73779,-28.8643 -4.65577,1.45221 -6.00904,1.55288 -8.60002,0.63972 -3.72457,-1.31269 -5.43878,-3.75751 -7.00863,-9.99578 -2.10059,-8.34732 -1.79045,-16.97649 0.89662,-24.947103 6.07794,-18.028833 20.54298,-29.380694 38.56551,-30.265375 7.33779,-0.360195 12.28177,0.414313 18.18623,2.849001 2.95621,1.218984 3.72504,1.877333 3.72504,3.189762 0,3.056229 -1.38163,3.303979 -7.09531,1.272307 -7.36704,-2.619568 -16.58388,-2.700615 -24.04005,-0.211391 -11.30699,3.774803 -20.18412,12.760906 -24.27254,24.570499 -2.76371,7.9831 -2.01456,22.71747 1.36482,26.84344 2.31255,2.82345 6.95061,0.57694 6.28267,-3.0431 -1.78721,-9.68626 -1.90249,-11.23755 -1.18098,-15.89252 1.56534,-10.099163 7.85978,-18.770913 16.78895,-23.129873 4.54069,-2.216623 5.31334,-2.360533 12.67344,-2.360533 7.62981,0 7.98135,0.073 13.23846,2.749063 7.87987,4.01114 11.60656,8.50203 15.42606,18.589333 1.64797,4.35232 3.29093,8.67437 3.651,9.60456 0.36007,0.93019 1.78945,4.87917 3.17639,8.77551 1.38695,3.89634 3.11364,8.72967 3.8371,10.74072 0.72346,2.01106 2.16785,6.12458 3.20975,9.14116 1.04189,3.01658 2.4756,7.1301 3.186,9.14116 6.68132,18.9139 8.58923,24.67941 9.28553,28.05973 1.74807,8.48643 -2.04089,18.83757 -5.5656,15.20475 -0.94598,-0.97499 -0.96889,-1.70054 -0.17534,-5.55457 0.99375,-4.82642 0.64791,-9.48184 -0.9894,-13.31845 -0.57569,-1.34898 -2.22278,-5.74351 -3.6602,-9.76561 -6.23038,-17.43359 -6.06818,-17.08836 -8.26179,-17.58494 -3.01259,-0.68196 -4.29966,0.76197 -3.90435,4.38018 0.17827,1.63166 2.46356,9.0411 5.07843,16.46541 3.83768,10.8962 4.66474,13.99084 4.28974,16.05109 -0.93168,5.11855 -4.52004,8.09944 -9.75903,8.10691 -4.66512,0.007 -7.42604,-2.81381 -10.37517,-10.59893 -1.21892,-3.21768 -2.21449,-6.12968 -2.2124,-6.47111 0.002,-0.34142 -0.4551,-1.65775 -1.016,-2.92517 -0.56089,-1.26742 -2.46061,-6.41792 -4.22159,-11.44555 -5.71331,-13.46043 -9.48442,-25.91171 -13.97776,-38.82878 -1.20473,-3.38014 -2.5209,-7.07368 -2.92481,-8.20786 -1.03668,-2.91094 -0.28218,-8.31321 1.50999,-10.81159 l 1.51913,-2.11776 h -1.86297 c -2.33906,0 -5.20593,1.73536 -7.04865,4.26665 -1.09015,1.49752 -1.43144,3.14648 -1.47249,7.11432 -0.0618,5.97716 -0.44493,6.90134 -2.86082,6.90134 -2.35542,0 -3.7233,-3.3809 -3.42864,-8.47434 0.24205,-4.1838 1.34746,-6.89436 4.27305,-10.47786 5.40872,-6.625043 15.73048,-7.234973 22.57954,-1.33426 3.53162,3.0426 5.09547,6.04246 8.28816,15.89871 1.23772,3.821 2.47085,7.27636 2.74029,7.67857 0.26945,0.40221 0.92273,2.14527 1.45175,3.87347 0.89344,2.9187 0.858,3.24919 -0.49833,4.64713 -1.64818,1.69874 -4.01979,1.36124 -4.82795,-0.68705 -0.62397,-1.5815 -4.32645,-12.20569 -6.40765,-18.38667 -2.16797,-6.43868 -4.98984,-8.34149 -7.73462,-5.21552 -1.07789,1.22759 -1.13052,1.78897 -0.39422,4.20493 0.46735,1.53351 1.45659,4.12616 2.19829,5.76143 0.74171,1.63528 1.34856,3.38334 1.34856,3.88457 0,0.50124 0.74579,2.61864 1.65731,4.70534 0.91152,2.0867 2.39224,6.09757 3.2905,8.91305 0.89825,2.81548 2.01847,6.10629 2.48937,7.31292 0.4709,1.20664 1.6697,4.66199 2.664,7.67858 2.11489,6.4163 4.07596,12.1959 4.83859,14.2602 0.29719,0.80442 1.70921,4.91794 3.13781,9.14116 3.72296,11.00571 4.07967,11.96372 4.8332,12.98044 1.0212,1.37786 4.38012,1.09733 5.76652,-0.48161 1.38031,-1.572 1.21193,-2.49662 -2.07635,-11.40189 -1.03962,-2.81548 -2.84733,-7.91625 -4.01714,-11.33504 -1.1698,-3.41879 -2.6927,-7.53231 -3.38419,-9.14115 -0.6915,-1.60885 -1.48815,-3.90912 -1.77033,-5.11172 -0.28218,-1.20261 -0.77785,-2.35523 -1.10151,-2.56139 -0.32364,-0.20616 -0.42009,-1.2825 -0.21433,-2.39187 0.46128,-2.48705 3.21303,-3.46132 5.02368,-1.77867 1.05066,0.97637 1.45061,0.99145 2.98692,0.11259 0.97561,-0.5581 2.46995,-1.0264 3.32074,-1.04065 1.92117,-0.0322 2.29758,1.32475 -6.3421,-22.86323 -3.87863,-10.85876 -7.54655,-19.931303 -8.67379,-21.454533 -2.23544,-3.0207 -7.91374,-6.96408 -12.07413,-8.38507 -4.18558,-1.42958 -11.36803,-1.10536 -16.09945,0.72675 -5.6277,2.17917 -11.01933,7.7941 -13.30047,13.851323 -3.14004,8.33793 -2.29246,13.20705 6.37744,36.63626 1.2651,3.41879 3.00517,8.19048 3.86678,10.60374 0.86163,2.41327 1.74546,4.88138 1.96406,5.4847 0.2186,0.60331 2.2014,6.36224 4.40622,12.79762 2.20483,6.43537 4.44307,12.85246 4.97388,14.2602 0.5308,1.40774 1.81466,5.02764 2.85299,8.04422 1.03834,3.01658 2.41915,6.63648 3.06845,8.04422 1.8133,3.93132 9.21194,11.07724 13.89687,13.42218 3.88792,1.946 13.4687,4.07667 14.33169,3.18721 0.21116,-0.21763 0.0387,-1.0604 -0.3831,-1.87283 -0.42185,-0.81243 -0.76701,-2.65056 -0.76701,-4.08475 0,-2.40246 -0.16536,-2.6076 -2.10198,-2.6076 -5.78768,0 -14.95851,-6.01065 -17.7094,-11.60692 -1.40383,-2.85588 -3.72642,-8.89292 -6.78835,-17.64478 -4.74178,-12.01713 -8.13374,-22.24411 -12.03366,-33.27381 -4.12983,-11.65312 -4.64586,-13.62919 -3.92272,-15.02183 1.57758,-3.03816 4.79324,-1.70353 6.23999,2.58986 0.4066,1.20663 1.58816,4.49745 2.6257,7.31292 1.72763,4.6881 3.82219,10.70088 12.86474,36.93028 1.73327,5.02763 3.63995,10.74472 4.23707,12.70463 1.58032,5.18705 6.70763,10.24641 11.98717,11.82828 3.43333,1.02871 4.7192,1.08487 8.28503,0.36181 6.32806,-1.28315 8.28505,1.01412 4.12125,4.83786 -3.56041,3.26964 -2.61767,7.56334 1.66063,7.56334 5.75171,0 15.28613,-8.27022 19.09817,-16.56587 2.18065,-4.74547 2.29754,-5.42783 2.23566,-13.05148 -0.0724,-8.91438 1.05297,-5.03481 -11.24255,-38.75851 -2.19967,-6.03316 -4.48263,-12.45025 -5.07326,-14.2602 -0.59063,-1.80995 -1.35437,-3.94898 -1.69718,-4.7534 -0.34283,-0.80442 -1.29559,-3.43708 -2.11724,-5.85034 -0.82167,-2.41327 -1.68513,-4.88138 -1.91881,-5.4847 -0.23368,-0.60331 -1.79499,-5.10936 -3.46958,-10.01345 -3.39464,-9.941293 -5.3969,-13.850363 -9.63767,-18.815893 -2.28137,-2.671273 -2.79243,-3.757053 -2.44327,-5.190903 0.94928,-3.89823 5.42401,-1.19467 10.18497,6.153583 3.18056,4.909 4.61609,8.37821 11.531,27.866663 2.78291,7.84312 5.32678,14.91837 5.65306,15.72279 0.32628,0.80443 2.39879,6.7279 4.60557,13.16327 2.20678,6.43537 4.61271,13.34609 5.34651,15.35714 7.82107,21.43464 8.13709,29.45051 1.66174,42.15105 -7.55652,14.82113 -25.48891,22.88292 -41.19811,18.52128 z m 61.32475,-48.26027 c -6.31707,-2.39015 -11.69848,-8.19555 -14.21709,-15.33723 -0.56738,-1.60884 -1.88965,-5.39328 -2.93837,-8.40986 -1.04873,-3.01658 -2.19555,-6.14286 -2.54848,-6.94728 -0.35293,-0.80442 -4.50719,-12.48682 -9.23168,-25.96089 -5.32076,-15.17456 -9.69986,-26.446053 -11.50619,-29.616073 -6.48392,-11.37898 -16.81776,-19.512939 -30.33312,-23.875771 -4.4582,-1.439129 -6.71733,-1.699752 -14.17273,-1.63502 -7.54171,0.06548 -9.71869,0.365238 -14.54539,2.002811 -12.55427,4.259342 -23.2048,12.858999 -29.34435,23.69379 -1.62839,2.87371 -3.27804,5.42707 -3.6659,5.67412 -1.30488,0.8312 -3.53059,-0.43722 -3.53059,-2.01207 0,-2.87263 4.76102,-10.574363 10.77162,-17.424873 5.12878,-5.845458 14.86292,-11.937293 23.9954,-15.016843 5.43428,-1.832488 7.04896,-2.037775 16.31921,-2.074794 11.37346,-0.04542 15.30136,0.774812 24.47882,5.111713 11.76375,5.559077 22.17634,16.323514 27.54664,28.477467 1.25205,2.8336 3.76064,9.52809 7.26314,19.382623 7.89292,22.20728 11.93248,33.67002 14.17423,40.22109 3.60486,10.5345 4.44326,12.12362 8.28708,15.70742 3.53213,3.2932 7.42381,4.76877 12.57714,4.76877 8.1381,5.38366 -6.04578,4.44768 -9.37939,3.2709 z M 155.92641,65.60874 c -0.61412,-1.994239 1.7659,-5.235238 9.93939,-13.535013 12.02839,-12.214229 24.69084,-19.031561 40.71833,-21.922336 7.17413,-1.63963 6.72482,0.717893 13.21076,1.093741 0.78048,0.08014 -2.09312,0.780195 -6.38578,1.555687 -22.16238,4.003753 -38.36653,13.607562 -52.63793,31.197244 -2.7805,3.427007 -4.14569,3.880871 -4.84477,1.610675 z"
     id="path4568"
     inkscape:connector-curvature="0"
     sodipodi:nodetypes="cscsccsccsscscsscccssccccsccscscsscsssssssscccsccccccsccccccssccccssscssssscsscsscccsccccsccscssssssscscsscscccccccscccsccccccccccsccscscsccccscccsscccccccsccccccccsccscccccccccccssscccsssscccsscsscccsccsscscsccscscssssscssssscssscccsccsscc"
     inkscape:export-filename="C:\Users\dante\de mol\rood_scherm.png"
     inkscape:export-xdpi="300"
     inkscape:export-ydpi="300" />
</svg>
